<?xml version="1.0" standalone="no"?>
<!DOCTYPE svg PUBLIC "-//W3C//DTD SVG 20010904//EN"
 "http://www.w3.org/TR/2001/REC-SVG-20010904/DTD/svg10.dtd">
<svg version="1.0" xmlns="http://www.w3.org/2000/svg"
 width="500.000000pt" height="500.000000pt" viewBox="0 0 500.000000 500.000000"
 preserveAspectRatio="xMidYMid meet">

<g transform="translate(0.000000,500.000000) scale(0.100000,-0.100000)"
fill="#000000" stroke="none">
<path d="M860 2500 l0 -330 925 0 925 0 0 330 0 330 -925 0 -925 0 0 -330z
m624 89 c27 -22 34 -57 14 -77 -9 -9 -9 -15 0 -24 13 -13 16 -57 4 -74 -16
-25 -55 -34 -141 -34 l-91 0 0 115 0 115 94 0 c79 0 97 -3 120 -21z m146 -74
l0 -95 95 0 c88 0 95 -1 95 -20 0 -19 -7 -20 -115 -20 l-115 0 0 115 c0 108 1
115 20 115 19 0 20 -7 20 -95z m509 61 c27 -26 31 -37 31 -81 0 -84 -42 -115
-158 -115 -49 0 -76 5 -99 20 -68 41 -64 153 7 192 28 15 51 18 112 16 69 -3
80 -6 107 -32z m341 19 c26 -13 50 -42 50 -59 0 -14 -44 -4 -56 12 -10 13 -28
17 -88 17 -84 0 -101 -10 -112 -62 -5 -26 -1 -37 19 -57 23 -23 35 -26 92 -26
54 0 69 4 88 23 l22 22 -47 3 c-34 2 -48 7 -48 18 0 11 16 14 70 14 l70 0 0
-60 c0 -53 -2 -60 -20 -60 -11 0 -20 7 -20 15 0 14 -3 13 -25 -1 -19 -12 -43
-15 -105 -12 -70 3 -83 6 -106 29 -53 54 -38 155 29 184 43 19 151 19 187 0z"/>
<path d="M1310 2545 c0 -24 2 -25 75 -25 60 0 77 3 82 16 9 24 -15 34 -89 34
-66 0 -68 -1 -68 -25z"/>
<path d="M1310 2450 l0 -31 71 3 c56 2 74 7 83 21 16 26 -8 37 -86 37 l-68 0
0 -30z"/>
<path d="M1945 2558 c-29 -16 -35 -28 -35 -70 0 -52 27 -68 110 -68 84 0 110
16 110 70 0 55 -34 80 -109 80 -31 0 -65 -6 -76 -12z"/>
<path d="M3965 2613 c-75 -10 -104 -37 -91 -88 7 -28 38 -38 156 -55 83 -12
100 -21 80 -45 -9 -11 -32 -15 -91 -15 -66 0 -82 3 -99 20 -23 23 -50 26 -50
7 0 -8 12 -24 26 -38 22 -20 38 -24 105 -28 116 -5 170 24 155 85 -9 33 -33
43 -128 55 -103 12 -118 17 -118 34 0 36 172 43 201 9 13 -15 49 -19 49 -5 0
25 -39 52 -89 61 -29 5 -59 9 -65 9 -6 -1 -24 -4 -41 -6z"/>
<path d="M4315 2611 c-66 -12 -85 -27 -85 -67 0 -30 5 -37 33 -49 18 -7 62
-17 97 -21 79 -8 110 -19 110 -38 0 -20 -23 -26 -101 -26 -56 0 -73 4 -89 20
-21 21 -50 27 -50 9 0 -46 52 -69 152 -69 91 0 128 18 128 64 0 49 -24 65
-121 76 -107 14 -121 18 -117 38 7 35 159 40 192 6 8 -8 24 -14 35 -14 18 0
19 3 9 24 -18 40 -108 62 -193 47z"/>
<path d="M2850 2490 c0 -113 1 -120 20 -120 17 0 20 7 20 40 l0 40 84 0 c104
0 136 19 136 81 0 68 -21 79 -150 79 l-110 0 0 -120z m218 52 c6 -42 -14 -52
-99 -52 l-79 0 0 40 0 41 88 -3 c82 -3 87 -4 90 -26z"/>
<path d="M3190 2490 c0 -113 1 -120 20 -120 17 0 20 7 20 45 l0 46 93 -3 92
-3 3 -42 c3 -38 6 -43 28 -43 21 0 24 5 24 33 0 18 -7 43 -16 55 -15 21 -15
25 0 41 9 10 16 32 16 49 0 52 -27 62 -162 62 l-118 0 0 -120z m235 50 c0 -25
-1 -25 -97 -28 l-98 -3 0 31 0 31 98 -3 c96 -3 97 -3 97 -28z"/>
<path d="M3560 2490 l0 -120 125 0 c118 0 125 1 125 20 0 19 -7 20 -105 20
l-105 0 0 30 0 30 96 0 c86 0 95 2 92 18 -3 14 -17 17 -96 20 l-92 3 0 34 0
35 105 0 c87 0 105 3 105 15 0 13 -21 15 -125 15 l-125 0 0 -120z"/>
</g>
</svg>
